<mxfile host="app.diagrams.net" agent="Mozilla/5.0 (Windows NT 10.0; Win64; x64) AppleWebKit/537.36 (KHTML, like Gecko) Chrome/141.0.0.0 Safari/537.36" version="28.2.5">
  <diagram name="Página-1" id="W5K6EKXPYPaOuD13RN5w">
    <mxGraphModel dx="946" dy="597" grid="1" gridSize="10" guides="1" tooltips="1" connect="1" arrows="1" fold="1" page="1" pageScale="1" pageWidth="827" pageHeight="1169" math="0" shadow="0">
      <root>
        <mxCell id="0" />
        <mxCell id="1" parent="0" />
        <mxCell id="WQN7uaYgYGrwjcUxukzr-1" value="NETSMS" style="shape=cylinder3;whiteSpace=wrap;html=1;boundedLbl=1;backgroundOutline=1;size=15;verticalAlign=top;fontStyle=1" vertex="1" parent="1">
          <mxGeometry x="220" y="230" width="340" height="240" as="geometry" />
        </mxCell>
        <mxCell id="WQN7uaYgYGrwjcUxukzr-2" value="CATÁLOGO - Nova Proc (retorna mesmo pacote sem CM)" style="rounded=0;whiteSpace=wrap;html=1;" vertex="1" parent="1">
          <mxGeometry x="430" y="390" width="120" height="60" as="geometry" />
        </mxCell>
      </root>
    </mxGraphModel>
  </diagram>
</mxfile>
